<svg class="header__svg" xmlns="http://www.w3.org/2000/svg" version="1.2" baseProfile="tiny-ps" viewBox="0 0 4179 1024" width="4179" height="1024" role="img" aria-labelledby="largelogo__title largelogo__description">
    <title id="largelogo__title">Logo largo de Siku Corp</title>
    <desc id="largelogo__description">Letras que escriben Siku conformados con el logo de la corporación</desc>
    <style>.s0{fill:#fff;}</style>
    <g>
    <path class="s0" d="m3630.5 28.3l0.6 332.1c0.3 182.7 0.9 333.9 1.3 336.1c0.4 2.2 1.4 8.9 2.2 15c0.9 6 2.9 16.1 4.5 22.4c1.6 6.3 2.8 11.6 2.6 11.8c-1 0.9-32.6-12.9-46.7-20.4c-104.6-55.6-177.3-154.3-198.9-269.9c-4.3-22.7-5.3-33.6-5.8-62.9c-0.5-30.9 0.5-46.7 4.8-72c9.4-56 32.8-112.2 65.9-158.4c40.3-56.4 95.5-101.5 157.5-128.6l12-5.2z"/>
    <path class="s0" d="m3936 283l5.8 2.6c3.1 1.4 8.2 3.6 11.2 4.9c9.7 4.1 34 17.4 47.2 25.8c90.6 57.6 154.4 154.1 171.7 259.7c4.2 25.6 4.6 31 4.6 64.5c0 33.5-0.4 38.2-4.6 64c-8.2 49.6-28.3 101.5-55.6 143.4c-49 75.3-118.8 129.2-203.5 157.2c-28.1 9.2-61.6 16-87 17.5c-6 0.4-10.8 1.1-10.8 1.6c0 0.4-4.9 0.8-11 0.8h-11v-94.5v-94.5h4.4c14.3 0 43.7-6.1 57.8-12c50.4-20.9 75.4-66.1 79.8-144c0.6-10.2 1-96.1 1-207.2v-189.8z"/>
    </g>
    <g>
    <path class="s0" d="m2301.2 41c0.5 0 0.9 91.6 1 203.6l0.3 203.7l48.8-72.9c26.8-40.1 60.7-90 75.3-110.9c14.5-20.9 31.5-45.3 37.7-54.2l11.2-16.3l0.3 142.9c0.1 78.6 0.1 207.6 0 286.6l-0.3 143.6l-36-62.1c-27.7-47.8-36.2-61.7-37.1-60.7c-1.9 2-39.4 42.7-58.7 63.7c-9.9 10.7-19.4 21-21.2 22.9l-3.3 3.4l-13.4-6.6c-59.5-29.1-112-75.2-149.6-131.5c-32.9-49.3-53.1-103.3-61.8-165.2c-2.5-17.9-3-65.5-1-85c4-38.1 11.8-70.2 25.3-104.5c32.5-82.5 95.7-154.1 172.6-195.5c5-2.7 9.5-5 9.9-5z"/>
    <path class="s0" d="m2496 256h11.5c42 0 97.4 12.2 140.8 31.1c12.7 5.5 35.7 17.2 35.7 18.2c0 0.4-2.4 3.8-5.3 7.5c-2.9 3.7-15.2 19.5-27.3 35.2c-12.2 15.7-35.2 45.5-51.2 66.2c-16.1 20.7-29.2 37.9-29.2 38.3c0 0.3 1.2 2.4 2.7 4.8c1.4 2.3 14.2 23.1 28.3 46.2c38.6 63.3 92 150.6 122.8 201c15.1 24.7 38 62.1 50.7 83c12.7 20.9 26.8 44 31.3 51.3c4.5 7.3 8.2 13.9 8.2 14.7c0 2-15.9 23.4-27.5 37c-11.1 12.9-29.3 31.2-41.8 41.9c-33.7 28.9-78.6 54.8-120.7 69.7c-5.2 1.8-9.6 3.7-9.8 4.1c-0.5 1.1-2.2 1-2.2-0.1c0-0.5-8.8-16.1-19.7-34.8c-10.8-18.6-25.9-44.6-33.6-57.8c-7.6-13.2-21.5-37.1-30.7-53c-9.2-16-20.4-35.3-24.9-43l-8.1-14v-273.8v-273.7z"/>
    </g>
    <g>
    <path class="s0" d="m1471 256h11.5c25.6 0 60.8 5.3 91.8 13.7l9.7 2.7l-0.2 367.4l-0.3 367.5l-5.5 1.9c-6.8 2.3-33.5 8.3-46 10.3c-16.1 2.5-37.7 4.5-49.6 4.5h-11.4v-384v-384z"/>
    <path class="s0" d="m1437.8 0.1l13.2-0.1v384v384h-12c-24.8 0-69-6.7-92.5-14.1c-3.3-1-6.8-1.9-7.7-1.9c-1.7 0-1.8-18.2-1.8-367.8v-367.8l16.8-4.2c24.1-6 37.1-8.3 63.2-11.1c4.1-0.5 13.5-0.9 20.8-1z"/>
    </g>
    <g>
    <path class="s0" d="m412.2 0.1l13.7-0.1v101.9v101.9l-2.2 0.4c-1.3 0.2-6 0.9-10.6 1.6c-46.29 6.39-82.48 36.36-89.78 74.63c-3 15.98-1.1 33.87 5.1 46.75c11.2 23.18 40.79 43.56 84.98 58.34l12 4l0.3 119.78l0.2 119.78l-17.7-4.2c-9.8-2.4-27.89-6.59-40.29-9.49c-89.58-20.58-159.56-48.35-214.94-85.22c-51.59-34.37-89.98-79.42-107.47-126.08l-3.7-9.99l0.5-23.48c0.3-12.89 1.3-28.67 2.1-34.97c9.1-66.24 31.09-122.18 68.98-175.63c23.09-32.57 59.48-68.73 92.08-91.31c52.29-36.26 113.47-59.34 176.45-66.63c9.1-1 22.69-1.9 30.29-2z"/>
    <path class="s0" d="m572.56 275.83c26.59 9.19 52.59 21.58 76.78 36.66c6.8 4.2 12.1 7.99 11.9 8.39c-0.3 0.5-22.89 0.8-50.19 0.8h-49.79l-1.2-14.79c-0.6-8.19-2.3-19.18-3.7-24.98c-1.4-5.69-2.5-10.79-2.5-11.29c0-1.2 0.2-1.2 18.7 5.19z"/>
    <path class="s0" d="m445.9 394.61l2.8 0.6c1.5 0.3 4.1 1 5.7 1.5c1.7 0.4 19.99 4.2 40.79 8.39c50.49 10.09 77.78 16.98 126.17 31.97c55.19 17.18 105.67 40.96 139.16 65.64c26.99 19.88 59.78 52.35 62.28 61.74c1.5 5.59 4.8 27.97 5.9 40.96c1.4 14.59 1.4 52.95 0.1 67.93c-5.1 57.64-23.29 114.09-52.69 163.34c-51.19 85.72-133.17 147.86-228.74 173.23c-29.99 7.89-65.18 13.09-89.48 13.09h-12v-101.7v-101.7l16-1.2c16.9-1.2 34.49-4.6 45.59-8.79c37.89-14.19 58.28-37.56 62.58-71.73c2-16.18-1.2-31.37-9.1-43.06c-5.1-7.69-16.4-18.88-24.09-23.98c-8.2-5.39-24.09-13.39-36.69-18.38c-7.5-2.9-43.29-14.89-52.99-17.68c-1-0.3-1.3-25.18-1.3-120.28v-119.88z"/>
    <path class="s0" d="m191.46 688.43l47.69-0.1h47.59l0.7 6.69c1.7 17.18 4.3 29.97 8.5 41.76c1.2 3.3 2.4 6.99 2.7 8.29l0.5 2.3l-5.8-2.2c-20.69-7.69-44.29-18.88-63.38-30.17c-10.7-6.29-30.39-19.58-34.99-23.58l-3.5-3z"/>
    </g>
</svg>